<svg width="72" height="72" viewBox="0 0 72 72" fill="none" xmlns="http://www.w3.org/2000/svg">
<rect x="21" y="7.5" width="6" height="18" fill="#6F708B"/>
<rect x="49.5" y="7.5" width="6" height="18" fill="#6F708B"/>
<path fill-rule="evenodd" clip-rule="evenodd" d="M12 6H6V6.00002V12V64C6 65.1046 6.89543 66 8 66H10C11.1046 66 12 65.1046 12 64V12L64 12C65.1046 12 66 11.1046 66 10V8.00001C66 6.89544 65.1046 6.00001 64 6.00001L12 6.00002V6Z" fill="#ACADC1"/>
<rect x="16.5" y="24" width="45" height="22.5" rx="2" fill="#002374"/>
<path d="M27.9564 36.5661H26.2021V40.3577H24V30H27.9711C29.2337 30 30.2075 30.2727 30.8926 30.8181C31.5777 31.3635 31.9202 32.1341 31.9202 33.1301C31.9202 33.8367 31.7612 34.4272 31.4431 34.9014C31.1299 35.3709 30.6528 35.7456 30.0117 36.0254L32.324 40.2581V40.3577H29.9604L27.9564 36.5661ZM26.2021 34.8374H27.9785C28.5314 34.8374 28.9596 34.7022 29.263 34.4319C29.5664 34.1568 29.7181 33.7798 29.7181 33.3008C29.7181 32.8123 29.5738 32.4282 29.285 32.1484C29.0012 31.8686 28.5632 31.7287 27.9711 31.7287H26.2021V34.8374Z" fill="#F9F9FC"/>
<path d="M37.1172 40.5C35.9525 40.5 35.0032 40.1538 34.2691 39.4614C33.54 38.769 33.1754 37.8465 33.1754 36.6941V36.4949C33.1754 35.7219 33.3296 35.0318 33.6379 34.4248C33.9462 33.813 34.3817 33.3435 34.9445 33.0163C35.5121 32.6843 36.1581 32.5183 36.8823 32.5183C37.9687 32.5183 38.8226 32.8503 39.4441 33.5142C40.0705 34.1782 40.3837 35.1196 40.3837 36.3384V37.1778H35.3262C35.3947 37.6806 35.6002 38.0837 35.9427 38.3872C36.2902 38.6907 36.7282 38.8425 37.2567 38.8425C38.0739 38.8425 38.7125 38.5556 39.1725 37.9817L40.2148 39.1128C39.8967 39.5491 39.4661 39.8906 38.9229 40.1372C38.3797 40.3791 37.7778 40.5 37.1172 40.5ZM36.875 34.1829C36.4541 34.1829 36.1116 34.3205 35.8473 34.5955C35.588 34.8706 35.4216 35.2642 35.3482 35.7764H38.299V35.6128C38.2892 35.1575 38.162 34.8066 37.9173 34.56C37.6726 34.3086 37.3252 34.1829 36.875 34.1829Z" fill="#F9F9FC"/>
<path d="M43.5473 32.6606L43.6134 33.5498C44.1811 32.8621 44.942 32.5183 45.8963 32.5183C46.7379 32.5183 47.3643 32.7578 47.7754 33.2368C48.1864 33.7158 48.3969 34.4319 48.4067 35.3852V40.3577H46.2853V35.435C46.2853 34.9986 46.1874 34.6833 45.9917 34.4888C45.7959 34.2896 45.4705 34.19 45.0154 34.19C44.4184 34.19 43.9706 34.4367 43.6721 34.9299V40.3577H41.5508V32.6606H43.5473Z" fill="#F9F9FC"/>
<path d="M52.5613 30.7683V32.6606H53.9193V34.1687H52.5613V38.0102C52.5613 38.2947 52.6176 38.4986 52.7301 38.622C52.8427 38.7453 53.058 38.8069 53.3761 38.8069C53.611 38.8069 53.8189 38.7903 54 38.7571V40.315C53.584 40.4383 53.1559 40.5 52.7154 40.5C51.2278 40.5 50.4693 39.772 50.4399 38.3161V34.1687H49.2802V32.6606H50.4399V30.7683H52.5613Z" fill="#F9F9FC"/>
</svg>
