<svg width="73" height="72" viewBox="0 0 73 72" fill="none" xmlns="http://www.w3.org/2000/svg">
<rect x="12.5" y="4" width="48" height="64" rx="2.13333" fill="#F0F0F5"/>
<path fill-rule="evenodd" clip-rule="evenodd" d="M20.5 16.8001C20.5 15.9164 21.2164 15.2001 22.1 15.2001H50.9C51.7837 15.2001 52.5 15.9164 52.5 16.8001C52.5 17.6837 51.7837 18.4001 50.9 18.4001H22.1C21.2164 18.4001 20.5 17.6837 20.5 16.8001Z" fill="#6F708B"/>
<path fill-rule="evenodd" clip-rule="evenodd" d="M41.3 32.8001C41.3 31.9164 42.0163 31.2001 42.9 31.2001L50.9 31.2001C51.7836 31.2001 52.5 31.9164 52.5 32.8001C52.5 33.6837 51.7836 34.4001 50.9 34.4001L42.9 34.4001C42.0163 34.4001 41.3 33.6837 41.3 32.8001Z" fill="#6F708B"/>
<path fill-rule="evenodd" clip-rule="evenodd" d="M20.5 52C20.5 51.1164 21.2164 50.4 22.1 50.4H33.3C34.1837 50.4 34.9 51.1164 34.9 52C34.9 52.8837 34.1837 53.6 33.3 53.6H22.1C21.2164 53.6 20.5 52.8837 20.5 52Z" fill="#6F708B"/>
<path fill-rule="evenodd" clip-rule="evenodd" d="M36.7968 39.7714C38.5822 36.2839 38.1749 32.0987 35.4757 29.3995C32.0519 25.9757 26.2372 26.2394 22.4882 29.9884C18.7392 33.7374 18.4755 39.5521 21.8993 42.9759C24.5985 45.6751 28.7837 46.0824 32.2713 44.2969L34.1325 46.1581C34.2274 46.2531 34.3448 46.3226 34.4736 46.3603L36.415 46.9279C36.677 47.0045 36.8818 47.2093 36.9584 47.4713L37.4606 49.1887C37.5371 49.4506 37.742 49.6554 38.0039 49.732L39.7213 50.2342C39.9832 50.3108 40.1881 50.5156 40.2647 50.7775L40.7668 52.495C40.8434 52.7569 41.0482 52.9617 41.3102 53.0383L43.0276 53.5405C43.2895 53.6171 43.4943 53.8219 43.5709 54.0838L44.1386 56.0252C44.1763 56.1541 44.2458 56.2714 44.3408 56.3664L46.5296 58.5552C46.6236 58.6492 46.7494 58.7048 46.8823 58.7108L50.8344 58.8916C51.1478 58.906 51.4058 58.6479 51.3915 58.3345L51.2201 54.589C51.208 54.3232 51.097 54.0716 50.9088 53.8835L36.7968 39.7714ZM29.3123 32.3788C30.384 33.4505 30.2601 35.3119 29.0356 36.5364C27.8111 37.7609 25.9497 37.8848 24.878 36.8131C23.8063 35.7414 23.9302 33.88 25.1547 32.6555C26.3792 31.431 28.2406 31.3071 29.3123 32.3788Z" fill="#FF7D00"/>
</svg>
