<svg width="73" height="72" viewBox="0 0 73 72" fill="none" xmlns="http://www.w3.org/2000/svg">
<rect x="21.5" y="7.5" width="6" height="18" fill="#6F708B"/>
<rect x="50" y="7.5" width="6" height="18" fill="#6F708B"/>
<path fill-rule="evenodd" clip-rule="evenodd" d="M12.5 6H6.5V6.00002V12V64C6.5 65.1046 7.39543 66 8.5 66H10.5C11.6046 66 12.5 65.1046 12.5 64V12L64.5 12C65.6046 12 66.5 11.1046 66.5 10V8.00001C66.5 6.89544 65.6046 6.00001 64.5 6.00001L12.5 6.00002V6Z" fill="#ACADC1"/>
<rect x="17" y="24" width="45" height="22.5" rx="2" fill="#FF7D00"/>
<path d="M28.4564 36.5661H26.7021V40.3577H24.5V30H28.4711C29.7337 30 30.7075 30.2727 31.3926 30.8181C32.0777 31.3635 32.4202 32.1341 32.4202 33.1301C32.4202 33.8367 32.2612 34.4272 31.9431 34.9014C31.6299 35.3709 31.1528 35.7456 30.5117 36.0254L32.824 40.2581V40.3577H30.4604L28.4564 36.5661ZM26.7021 34.8374H28.4785C29.0314 34.8374 29.4596 34.7022 29.763 34.4319C30.0664 34.1568 30.2181 33.7798 30.2181 33.3008C30.2181 32.8123 30.0738 32.4282 29.785 32.1484C29.5012 31.8686 29.0632 31.7287 28.4711 31.7287H26.7021V34.8374Z" fill="#F9F9FC"/>
<path d="M37.6172 40.5C36.4525 40.5 35.5032 40.1538 34.7691 39.4614C34.04 38.769 33.6754 37.8465 33.6754 36.6941V36.4949C33.6754 35.7219 33.8296 35.0318 34.1379 34.4248C34.4462 33.813 34.8817 33.3435 35.4445 33.0163C36.0121 32.6843 36.6581 32.5183 37.3823 32.5183C38.4687 32.5183 39.3226 32.8503 39.9441 33.5142C40.5705 34.1782 40.8837 35.1196 40.8837 36.3384V37.1778H35.8262C35.8947 37.6806 36.1002 38.0837 36.4427 38.3872C36.7902 38.6907 37.2282 38.8425 37.7567 38.8425C38.5739 38.8425 39.2125 38.5556 39.6725 37.9817L40.7148 39.1128C40.3967 39.5491 39.9661 39.8906 39.4229 40.1372C38.8797 40.3791 38.2778 40.5 37.6172 40.5ZM37.375 34.1829C36.9541 34.1829 36.6116 34.3205 36.3473 34.5955C36.088 34.8706 35.9216 35.2642 35.8482 35.7764H38.799V35.6128C38.7892 35.1575 38.662 34.8066 38.4173 34.56C38.1726 34.3086 37.8252 34.1829 37.375 34.1829Z" fill="#F9F9FC"/>
<path d="M44.0473 32.6606L44.1134 33.5498C44.6811 32.8621 45.442 32.5183 46.3963 32.5183C47.2379 32.5183 47.8643 32.7578 48.2754 33.2368C48.6864 33.7158 48.8969 34.4319 48.9067 35.3852V40.3577H46.7853V35.435C46.7853 34.9986 46.6874 34.6833 46.4917 34.4888C46.2959 34.2896 45.9705 34.19 45.5154 34.19C44.9184 34.19 44.4706 34.4367 44.1721 34.9299V40.3577H42.0508V32.6606H44.0473Z" fill="#F9F9FC"/>
<path d="M53.0613 30.7683V32.6606H54.4193V34.1687H53.0613V38.0102C53.0613 38.2947 53.1176 38.4986 53.2301 38.622C53.3427 38.7453 53.558 38.8069 53.8761 38.8069C54.111 38.8069 54.3189 38.7903 54.5 38.7571V40.315C54.084 40.4383 53.6559 40.5 53.2154 40.5C51.7278 40.5 50.9693 39.772 50.9399 38.3161V34.1687H49.7802V32.6606H50.9399V30.7683H53.0613Z" fill="#F9F9FC"/>
</svg>
