<svg width="160" height="218" viewBox="0 0 160 218" fill="none" xmlns="http://www.w3.org/2000/svg">
<path fill-rule="evenodd" clip-rule="evenodd" d="M13.7396 208.331C9.83962 199.429 7.67578 189.595 7.67578 179.256C7.67578 139.167 40.208 106.668 80.3385 106.668C120.469 106.668 153.001 139.167 153.001 179.256C153.001 189.595 150.837 199.429 146.938 208.331H13.7396Z" fill="#F9C900"/>
<path d="M98.2478 8.25H25.2464C20.4061 8.25 15.7641 10.3835 12.3415 14.1811C8.91889 17.9787 6.99609 23.1294 6.99609 28.5V190.5C6.99609 195.871 8.91889 201.021 12.3415 204.819C15.7641 208.617 20.4061 210.75 25.2464 210.75H134.748C139.589 210.75 144.231 208.617 147.653 204.819C151.076 201.021 152.999 195.871 152.999 190.5V69L98.2478 8.25Z" stroke="#26273B" stroke-width="6" stroke-linecap="round" stroke-linejoin="round"/>
<path d="M98.25 8.25V69H153.001" stroke="#26273B" stroke-width="6" stroke-linecap="round" stroke-linejoin="round"/>
<path d="M116.497 160.125H43.4961" stroke="#26273B" stroke-width="6" stroke-linecap="round" stroke-linejoin="round"/>
<path d="M35.8608 51V42.2727H41.4517V43.598H37.4418V45.9673H41.0682V47.2926H37.4418V51H35.8608ZM42.8239 51V44.4545H44.3665V51H42.8239ZM43.5994 43.5256C43.3551 43.5256 43.1449 43.4446 42.9688 43.2827C42.7926 43.1179 42.7045 42.9205 42.7045 42.6903C42.7045 42.4574 42.7926 42.2599 42.9688 42.098C43.1449 41.9332 43.3551 41.8509 43.5994 41.8509C43.8466 41.8509 44.0568 41.9332 44.2301 42.098C44.4063 42.2599 44.4943 42.4574 44.4943 42.6903C44.4943 42.9205 44.4063 43.1179 44.2301 43.2827C44.0568 43.4446 43.8466 43.5256 43.5994 43.5256ZM47.4954 42.2727V51H45.9528V42.2727H47.4954ZM51.9794 51.1278C51.3232 51.1278 50.7564 50.9915 50.2791 50.7188C49.8047 50.4432 49.4396 50.054 49.1839 49.5511C48.9283 49.0455 48.8004 48.4503 48.8004 47.7656C48.8004 47.0923 48.9283 46.5014 49.1839 45.9929C49.4425 45.4815 49.8033 45.0838 50.2663 44.7997C50.7294 44.5128 51.2734 44.3693 51.8984 44.3693C52.3018 44.3693 52.6825 44.4347 53.0405 44.5653C53.4013 44.6932 53.7195 44.892 53.995 45.1619C54.2734 45.4318 54.4922 45.7756 54.6513 46.1932C54.8104 46.608 54.8899 47.1023 54.8899 47.6761V48.1491H49.5249V47.1094H53.4112C53.4084 46.8139 53.3445 46.5511 53.2195 46.321C53.0945 46.0881 52.9197 45.9048 52.6953 45.7713C52.4737 45.6378 52.2152 45.571 51.9197 45.571C51.6044 45.571 51.3274 45.6477 51.0888 45.8011C50.8501 45.9517 50.6641 46.1506 50.5305 46.3977C50.3999 46.642 50.3331 46.9105 50.3303 47.2031V48.1108C50.3303 48.4915 50.3999 48.8182 50.5391 49.0909C50.6783 49.3608 50.8729 49.5682 51.1229 49.7131C51.3729 49.8551 51.6655 49.9261 52.0007 49.9261C52.2251 49.9261 52.4283 49.8949 52.6101 49.8324C52.7919 49.767 52.9496 49.6719 53.0831 49.5469C53.2166 49.4219 53.3175 49.267 53.3857 49.0824L54.826 49.2443C54.7351 49.625 54.5618 49.9574 54.3061 50.2415C54.0533 50.5227 53.7294 50.7415 53.3345 50.8977C52.9396 51.0511 52.4879 51.1278 51.9794 51.1278ZM62.1971 51H59.2397V42.2727H62.2567C63.1232 42.2727 63.8675 42.4474 64.4897 42.7969C65.1147 43.1435 65.5948 43.642 65.93 44.2926C66.2653 44.9432 66.4329 45.7216 66.4329 46.6278C66.4329 47.5369 66.2638 48.3182 65.9258 48.9716C65.5906 49.625 65.1062 50.1264 64.4727 50.4759C63.842 50.8253 63.0835 51 62.1971 51ZM60.8207 49.6321H62.1204C62.7283 49.6321 63.2354 49.5213 63.6417 49.2997C64.0479 49.0753 64.3533 48.7415 64.5579 48.2983C64.7624 47.8523 64.8647 47.2955 64.8647 46.6278C64.8647 45.9602 64.7624 45.4062 64.5579 44.9659C64.3533 44.5227 64.0508 44.1918 63.6502 43.973C63.2525 43.7514 62.7582 43.6406 62.1673 43.6406H60.8207V49.6321ZM70.7219 51.1278C70.0827 51.1278 69.5288 50.9872 69.06 50.706C68.5913 50.4247 68.2276 50.0312 67.9691 49.5256C67.7134 49.0199 67.5856 48.429 67.5856 47.7528C67.5856 47.0767 67.7134 46.4844 67.9691 45.9759C68.2276 45.4673 68.5913 45.0724 69.06 44.7912C69.5288 44.5099 70.0827 44.3693 70.7219 44.3693C71.3612 44.3693 71.9151 44.5099 72.3839 44.7912C72.8526 45.0724 73.2148 45.4673 73.4705 45.9759C73.729 46.4844 73.8583 47.0767 73.8583 47.7528C73.8583 48.429 73.729 49.0199 73.4705 49.5256C73.2148 50.0312 72.8526 50.4247 72.3839 50.706C71.9151 50.9872 71.3612 51.1278 70.7219 51.1278ZM70.7305 49.892C71.0771 49.892 71.3668 49.7969 71.5998 49.6065C71.8327 49.4134 72.006 49.1548 72.1197 48.831C72.2362 48.5071 72.2944 48.1463 72.2944 47.7486C72.2944 47.348 72.2362 46.9858 72.1197 46.6619C72.006 46.3352 71.8327 46.0753 71.5998 45.8821C71.3668 45.6889 71.0771 45.5923 70.7305 45.5923C70.3754 45.5923 70.0799 45.6889 69.8441 45.8821C69.6112 46.0753 69.4364 46.3352 69.32 46.6619C69.2063 46.9858 69.1495 47.348 69.1495 47.7486C69.1495 48.1463 69.2063 48.5071 69.32 48.831C69.4364 49.1548 69.6112 49.4134 69.8441 49.6065C70.0799 49.7969 70.3754 49.892 70.7305 49.892ZM78.0227 51.1278C77.3693 51.1278 76.8082 50.9844 76.3395 50.6974C75.8736 50.4105 75.5142 50.0142 75.2614 49.5085C75.0114 49 74.8864 48.4148 74.8864 47.7528C74.8864 47.0881 75.0142 46.5014 75.2699 45.9929C75.5256 45.4815 75.8864 45.0838 76.3523 44.7997C76.821 44.5128 77.375 44.3693 78.0142 44.3693C78.5455 44.3693 79.0156 44.4673 79.4247 44.6634C79.8366 44.8565 80.1648 45.1307 80.4091 45.4858C80.6534 45.8381 80.7926 46.25 80.8267 46.7216H79.3523C79.2926 46.4062 79.1506 46.1435 78.9261 45.9332C78.7045 45.7202 78.4077 45.6136 78.0355 45.6136C77.7202 45.6136 77.4432 45.6989 77.2045 45.8693C76.9659 46.0369 76.7798 46.2784 76.6463 46.5938C76.5156 46.9091 76.4503 47.2869 76.4503 47.7273C76.4503 48.1733 76.5156 48.5568 76.6463 48.8778C76.777 49.196 76.9602 49.4418 77.196 49.6151C77.4347 49.7855 77.7145 49.8707 78.0355 49.8707C78.2628 49.8707 78.4659 49.8281 78.6449 49.7429C78.8267 49.6548 78.9787 49.5284 79.1009 49.3636C79.223 49.1989 79.3068 48.9986 79.3523 48.7628H80.8267C80.7898 49.2259 80.6534 49.6364 80.4176 49.9943C80.1818 50.3494 79.8608 50.6278 79.4545 50.8295C79.0483 51.0284 78.571 51.1278 78.0227 51.1278ZM84.0408 47.1818L84.1388 45.456L82.69 46.4062L82.1701 45.5028L83.717 44.7273L82.1701 43.9517L82.69 43.0483L84.1388 43.9986L84.0408 42.2727H85.0763L84.9826 43.9986L86.4315 43.0483L86.9513 43.9517L85.4002 44.7273L86.9513 45.5028L86.4315 46.4062L84.9826 45.456L85.0763 47.1818H84.0408Z" fill="#26273B"/>
<path d="M46 117C46 117 58 93 79 93C100 93 112 117 112 117C112 117 100 141 79 141C58 141 46 117 46 117Z" stroke="#26273B" stroke-width="6" stroke-linecap="round" stroke-linejoin="round"/>
<path d="M79 126C83.9706 126 88 121.971 88 117C88 112.029 83.9706 108 79 108C74.0294 108 70 112.029 70 117C70 121.971 74.0294 126 79 126Z" stroke="#26273B" stroke-width="6" stroke-linecap="round" stroke-linejoin="round"/>
</svg>
